# xmcd
#
# Track frame offsets:
#	150
#	13088
#	25281
#	38857
#	51697
#	64583
#	78357
#	88706
#	104719
#	117866
#	129581
#	142747
#	155640
#	167122
#	178928
#	193341
#	205379
#	219252
#	232353
#	247466
#	262584
#	279935
#
# Disc length: 3893 seconds
#
# Revision: 1
# Processed by: cddbd v1.5.2PL0 Copyright (c) Steve Scherf et al.
# Submitted via: audiograbber 1.83.01
#
DISCID=4e0f3316
DTITLE=Wild Canyon (Germany) - Instrumental Nuggets (2015)
DYEAR=2020
DGENRE=Country
TTITLE0=Teen scene '15 
TTITLE1=El Vaquero 
TTITLE2=dobro
TTITLE3=Quartermaster's stores 
TTITLE4=Massachussetts 
TTITLE5=Born to be with you 
TTITLE6=Cannonball 
TTITLE7=My memories '15 
TTITLE8=Dance with the guitar man 
TTITLE9=La Cucaracha 
TTITLE10=Can't help falling in love 
TTITLE11=Forty miles of bad road 
TTITLE12=Song of the shrimp 
TTITLE13=Third man theme 
TTITLE14=Honky Tonk 
TTITLE15=Swedish rhapsody 
TTITLE16=Suspicion
TTITLE17=Freight train 
TTITLE18=Let me go 
TTITLE19=The rumble 
TTITLE20=Seven spanish angels 
TTITLE21=Drum stomp
EXTD=
EXTT0=
EXTT1=
EXTT2=
EXTT3=
EXTT4=
EXTT5=
EXTT6=
EXTT7=
EXTT8=
EXTT9=
EXTT10=
EXTT11=
EXTT12=
EXTT13=
EXTT14=
EXTT15=
EXTT16=
EXTT17=
EXTT18=
EXTT19=
EXTT20=
EXTT21=
PLAYORDER=
